<?xml version="1.0" standalone="no"?>
<!DOCTYPE svg PUBLIC "-//W3C//DTD SVG 20010904//EN"
 "http://www.w3.org/TR/2001/REC-SVG-20010904/DTD/svg10.dtd">
<svg version="1.0" xmlns="http://www.w3.org/2000/svg"
 width="900.000000pt" height="900.000000pt" viewBox="0 0 900.000000 900.000000"
 preserveAspectRatio="xMidYMid meet">
<metadata>
Created by potrace 1.14, written by Peter Selinger 2001-2017
</metadata>
<g transform="translate(0.000000,900.000000) scale(0.100000,-0.100000)"
fill="#000000" stroke="none">
<path d="M4205 7954 c-154 -52 -323 -108 -376 -124 -52 -16 -164 -54 -249 -85
-84 -30 -181 -62 -214 -71 -77 -19 -598 -193 -611 -204 -5 -4 -35 -13 -65 -20
-49 -11 -339 -107 -492 -162 l-58 -20 1 -222 c1 -121 4 -253 8 -292 l6 -71 75
27 c41 15 111 39 155 53 44 14 118 39 165 56 265 93 389 136 510 172 140 43
806 261 1085 356 265 90 349 114 375 109 25 -4 162 -48 275 -87 33 -11 155
-51 270 -89 116 -39 230 -77 255 -85 25 -9 146 -50 270 -90 124 -41 239 -80
255 -86 42 -15 206 -69 355 -117 130 -42 612 -205 643 -217 16 -7 17 11 17
284 l0 291 -52 24 c-29 13 -98 36 -153 51 -55 15 -105 31 -110 35 -10 9 -242
87 -645 218 -102 34 -239 79 -305 100 -66 22 -154 50 -195 62 -41 12 -100 33
-130 45 -62 27 -756 255 -774 255 -6 0 -137 -43 -291 -96z"/>
<path d="M2140 6195 l0 -285 2360 0 2360 0 0 285 0 285 -2360 0 -2360 0 0
-285z"/>
<path d="M6543 5522 l-313 -2 0 -964 0 -965 88 24 c217 58 375 134 475 228
l67 62 -2 810 -3 810 -312 -3z"/>
<path d="M2140 4505 l0 -1015 315 0 315 0 0 1015 0 1015 -315 0 -315 0 0
-1015z"/>
<path d="M3500 4505 l0 -1015 318 0 317 0 0 1015 0 1015 -317 0 -318 0 0
-1015z"/>
<path d="M4870 4505 l0 -1015 315 0 315 0 0 1015 0 1015 -315 0 -315 0 0
-1015z"/>
<path d="M6815 3468 c-97 -98 -276 -181 -519 -242 -270 -68 -304 -75 -421 -87
-60 -6 -129 -15 -152 -20 -23 -5 -58 -9 -77 -9 -19 0 -38 -4 -41 -10 -4 -7
-396 -10 -1143 -10 -1146 0 -1385 -6 -1647 -41 -44 -6 -109 -14 -145 -19 -121
-15 -322 -60 -399 -90 -130 -50 -121 -26 -121 -345 0 -151 4 -276 9 -279 5 -3
44 10 87 30 144 65 432 113 939 155 66 6 640 13 1275 17 635 4 1160 10 1166
14 7 4 52 10 100 13 49 2 118 9 154 15 240 38 321 52 370 66 159 44 322 101
385 133 88 46 203 136 210 164 3 12 4 147 3 299 l-3 276 -30 -30z"/>
<path d="M6800 2475 c-90 -92 -288 -179 -545 -240 -185 -44 -220 -50 -485 -82
l-225 -26 -1115 -7 c-1098 -7 -1226 -10 -1575 -45 -285 -29 -524 -81 -635
-138 l-65 -34 -3 -293 c-2 -280 -1 -293 15 -278 35 30 263 101 378 119 28 4
95 14 150 23 55 9 141 18 190 21 50 3 104 8 120 11 100 19 431 27 1405 34 602
4 1113 10 1135 14 22 3 105 10 185 16 276 21 506 64 705 132 178 61 281 115
359 192 l66 64 0 286 c0 157 -1 286 -3 286 -1 0 -27 -25 -57 -55z"/>
</g>
</svg>
